<svg data-v-423bf9ae="" xmlns="http://www.w3.org/2000/svg" viewBox="0 0 322.1626888104067 172" class="iconAbove"><!----><!----><!----><g data-v-423bf9ae="" id="d76c42d4-439c-4de2-9958-6b3c82b7d6de" fill="#0F2020" transform="matrix(5.741626899055351,0,0,5.741626899055351,-2.7559841596306853,89.93375725163875)"><path d="M0.48 9.17C0.48 11.98 2.70 14.15 5.57 14.15C6.96 14.15 8.37 13.52 9.37 12.54L8.39 11.45C7.64 12.17 6.64 12.61 5.66 12.61C3.70 12.61 2.16 11.09 2.16 9.16C2.16 7.22 3.70 5.71 5.66 5.71C6.65 5.71 7.67 6.19 8.39 6.96L9.35 5.75C8.40 4.82 7.01 4.24 5.63 4.24C2.73 4.24 0.48 6.38 0.48 9.17ZM11.05 14.08L12.70 14.08L12.70 4.28L11.05 4.28ZM14.35 12.59C15.36 13.51 16.81 14.14 18.35 14.14C20.51 14.14 22.05 13.06 22.05 11.31C22.06 7.78 16.77 8.93 16.77 6.79C16.77 6.13 17.40 5.77 18.37 5.77C19.11 5.77 20.17 6.03 21.24 6.68L21.92 5.22C21.01 4.62 19.77 4.21 18.49 4.21C16.37 4.21 14.92 5.26 14.92 6.94C14.92 10.43 20.22 9.21 20.22 11.40C20.22 12.15 19.53 12.59 18.38 12.59C17.33 12.59 16.07 12.08 15.06 11.16ZM23.98 14.08L31.15 14.08L31.15 12.60L25.63 12.60L25.63 9.90L30.42 9.90L30.42 8.41L25.63 8.41L25.63 5.77L30.98 5.77L30.98 4.28L23.98 4.28ZM33.17 14.08L39.06 14.08L39.06 12.59L34.82 12.59L34.82 4.28L33.17 4.28ZM39.93 11.84C39.93 13.16 40.94 14.15 42.55 14.15C43.62 14.15 44.48 13.83 45.01 13.17L45.01 14.08L46.59 14.08L46.58 9.20C46.56 7.56 45.49 6.58 43.57 6.58C42.15 6.58 41.40 6.90 40.36 7.52L41.02 8.64C41.76 8.13 42.50 7.88 43.22 7.88C44.39 7.88 45.00 8.44 45.00 9.38L45.00 9.60L42.74 9.60C40.95 9.62 39.93 10.49 39.93 11.84ZM41.44 11.77C41.44 11.06 41.93 10.78 42.98 10.78L45.00 10.78L45.00 11.47C44.91 12.28 44.03 12.88 42.88 12.88C41.99 12.88 41.44 12.45 41.44 11.77ZM48.82 14.08L50.43 14.08L50.43 12.80C50.97 13.66 51.87 14.14 53.06 14.14C55.19 14.14 56.59 12.61 56.59 10.39C56.59 8.12 55.15 6.58 53.03 6.58C51.87 6.58 50.97 7.06 50.43 7.92L50.43 3.70L48.82 3.70ZM50.43 10.33C50.43 8.93 51.37 7.92 52.70 7.92C54.03 7.92 54.96 8.95 54.96 10.33C54.96 11.76 54.03 12.77 52.70 12.77C51.37 12.77 50.43 11.77 50.43 10.33Z"></path></g><defs data-v-423bf9ae=""><linearGradient data-v-423bf9ae="" gradientTransform="rotate(25)" id="2a785111-d5eb-4e5a-9cf0-a5f18079b004" x1="0%" y1="0%" x2="100%" y2="0%"><stop data-v-423bf9ae="" offset="0%" style="stop-color: rgb(5, 9, 34); stop-opacity: 1;"></stop><stop data-v-423bf9ae="" offset="100%" style="stop-color: rgb(110, 230, 199); stop-opacity: 1;"></stop></linearGradient></defs><g data-v-423bf9ae="" id="97821a6a-bca9-425b-a5c9-318a1a7b44f2" transform="matrix(1.0444444444444445,0,0,1.0444444444444445,109.63405715094672,-2.2222222222222285)" stroke="none" fill="url(#2a785111-d5eb-4e5a-9cf0-a5f18079b004)"><path d="M67.293 31.375c0-1.654-1.346-3-3-3h-1.75v-7.25h-2v7.25h-5v-7.25h-2v7.25h-5v-7.25h-2v7.25h-1.75c-1.654 0-3 1.346-3 3v1.75h-7.25v2h7.25v5h-7.25v2h7.25v5h-7.25v2h7.25v1.75c0 1.654 1.346 3 3 3h1.75v7.25h2v-7.25h5v7.25h2v-7.25h5v7.25h2v-7.25h1.75c1.654 0 3-1.346 3-3v-1.75h7.25v-2h-7.25v-5h7.25v-2h-7.25v-5h7.25v-2h-7.25v-1.75zm-2 19.5a1 1 0 0 1-1 1h-19.5c-.551 0-1-.448-1-1v-19.5c0-.551.449-1 1-1h19.5c.552 0 1 .449 1 1v19.5z"></path><path d="M54.543 3C33.481 3 16.346 21.154 16.346 43.469c0 3.695.469 7.351 1.395 10.875L6.415 64.826l16.777 6.65V86.21h13.599V97h43.271V73.58c8.063-7.675 12.678-18.623 12.678-30.111C92.74 21.154 75.605 3 54.543 3zm23.838 69.416l-.318.297V95H38.791V84.21H25.192V70.117l-15.088-5.98 9.887-9.149-.164-.588a40.756 40.756 0 0 1-1.482-10.93C18.346 22.257 34.583 5 54.543 5 74.502 5 90.74 22.257 90.74 43.469c0 11.085-4.505 21.635-12.359 28.947z"></path></g><!----></svg>